<?xml version="1.0" encoding="utf-8"?>
<!-- Generator: Adobe Illustrator 22.0.0, SVG Export Plug-In . SVG Version: 6.00 Build 0)  -->
<svg version="1.1" id="Capa_1" xmlns="http://www.w3.org/2000/svg" xmlns:xlink="http://www.w3.org/1999/xlink" x="0px" y="0px"
	 viewBox="0 0 46.5 22" style="enable-background:new 0 0 46.5 22;" xml:space="preserve">
<style type="text/css">
	.st0{fill:#FFFFFF;}
</style>
<title>Page 1</title>
<desc>Created with Sketch.</desc>
<g id="Page-1">
	<path class="st0" d="M0.5,21.5c0.7,0.7,1.4,0.7,2.1,0l8.4-8.3l8.4,8.3c0.7,0.8,1.4,0.8,2.1,0c0.7-0.7,0.7-1.4,0-2.1L13.2,11
		l8.3-8.4c0.8-0.7,0.8-1.4,0-2.1c-0.7-0.7-1.4-0.7-2.1,0L11,8.8L2.6,0.6C2-0.2,1.2-0.2,0.5,0.5s-0.7,1.4,0,2.1L8.8,11l-8.3,8.4
		C-0.2,20-0.2,20.8,0.5,21.5z"/>
</g>
</svg>
