<svg id="Capa_1" data-name="Capa 1" xmlns="http://www.w3.org/2000/svg" viewBox="0 0 120 117.46"><defs><style>.cls-1{fill:#f2f2f2;}</style></defs><title>ICONOS</title><path class="cls-1" d="M102.67,0H17.33A17.33,17.33,0,0,0,0,17.33v82.8a17.33,17.33,0,0,0,17.33,17.33h85.34A17.33,17.33,0,0,0,120,100.13V17.33A17.33,17.33,0,0,0,102.67,0ZM60.05,99.5a40.87,40.87,0,0,1-20-5.21l-21,5.41,5.73-20.36A40.87,40.87,0,1,1,60.05,99.5Z"/><path class="cls-1" d="M60.05,24.7A33.94,33.94,0,0,0,31.48,76.94l.84,1.32L29,90l12.13-3.12,1.25.76A33.94,33.94,0,1,0,60.05,24.7ZM80.86,69.06l-.42,2a8.56,8.56,0,0,1-3.73,5.44,11.31,11.31,0,0,1-9.57,1.18C54.73,74.15,47.71,65.94,44,60.8s-5.22-10.27-4.28-14.46a12.1,12.1,0,0,1,4-6.09,3.18,3.18,0,0,1,2.28-.78l2.65.14a1.38,1.38,0,0,1,1.19.84l3.86,9a1.37,1.37,0,0,1-.22,1.44L50,54.81A1,1,0,0,0,49.91,56,27.5,27.5,0,0,0,64.82,68.7,1,1,0,0,0,66,68.37l3.52-4.56a1.36,1.36,0,0,1,1.66-.41l9,4.13A1.36,1.36,0,0,1,80.86,69.06Z"/></svg>