<svg xmlns="http://www.w3.org/2000/svg" viewBox="0 0 120 117.46"><defs><style>.cls-1{fill:#f2f2f2;}</style></defs><title>ICONOS</title><g id="Capa_2" data-name="Capa 2"><path class="cls-1" d="M102.67,0H17.33A17.33,17.33,0,0,0,0,17.33v82.8a17.33,17.33,0,0,0,17.33,17.33h85.34A17.33,17.33,0,0,0,120,100.13V17.33A17.33,17.33,0,0,0,102.67,0ZM98.08,69.84A15.82,15.82,0,0,1,82.26,85.66H37.74A15.82,15.82,0,0,1,21.92,69.84V47.62A15.82,15.82,0,0,1,37.74,31.8H82.26A15.82,15.82,0,0,1,98.08,47.62Z"/><path class="cls-1" d="M71.37,55.9,50.54,45.34a.83.83,0,0,0-1.21.75V66.57a.84.84,0,0,0,1.2.76L71.35,57.4A.83.83,0,0,0,71.37,55.9Z"/></g></svg>