<svg id="Capa_1" data-name="Capa 1" xmlns="http://www.w3.org/2000/svg" viewBox="0 0 120 117.46"><defs><style>.cls-1{fill:#f2f2f2;}</style></defs><title>ICONOS</title><path class="cls-1" d="M102.67,0H17.33A17.33,17.33,0,0,0,0,17.33v82.8a17.33,17.33,0,0,0,17.33,17.33h85.34A17.33,17.33,0,0,0,120,100.13V17.33A17.33,17.33,0,0,0,102.67,0Zm1.26,33c-8.75,4.19-7.05,12.74-8.68,19.9C90,75.91,75.78,90.66,52.16,95c-12,2.19-24.57,1.64-36.32-6.27,10-.24,18.79-2,26.62-9.35-9.11-.26-15.12-3.71-18.56-11.1l8.47-1.52C24.74,62.82,17.3,59.4,16.81,49.44l7.58,1.3c-2.35-4-5.38-7.56-6.51-11.62s-.24-8.41-.24-14.11C29.39,37.28,42.18,44.14,58.72,44.88c.06-8.31,1.42-15.15,8.64-19.83C74,20.75,80.45,19.88,87,24.33c4.82,3.25,9.36,3.66,15.07,1l-6.06,7.7,8.11-.93C104.1,32.38,104.13,32.91,103.93,33Z"/></svg>