<svg id="Capa_1" data-name="Capa 1" xmlns="http://www.w3.org/2000/svg" viewBox="0 0 120 117.46"><defs><style>.cls-1{fill:#f2f2f2;}</style></defs><title>ICONOS</title><path class="cls-1" d="M89.79,29.43H77V42.92H89.79Z"/><path class="cls-1" d="M60.26,72.51c7.14.52,14.8-6.06,13.6-13.64,0-8.66-4.93-13.72-13.4-13.72S46,51,46,58.92C46.12,66.65,52.2,71.93,60.26,72.51Z"/><path class="cls-1" d="M102.67,0H17.33A17.33,17.33,0,0,0,0,17.33v82.8a17.33,17.33,0,0,0,17.33,17.33h85.34A17.33,17.33,0,0,0,120,100.13V17.33A17.33,17.33,0,0,0,102.67,0ZM98,36.12c-.77,7.43-.17,15-.17,22.5,0,7.82-.42,15.66.13,23.44.51,7.27-7.4,13.89-14.06,13.85-15.66-.11-31.31,0-47-.06-8.45,0-14.8-6.49-14.89-15.26-.15-14.54-.3-29.08.06-43.61C22.33,29.26,27.5,21.5,38,21.61c15,.16,30,.25,45-.05C89.84,21.42,98.83,28.4,98,36.12Z"/><path class="cls-1" d="M79.79,51c.73,14.81-1.74,20.87-9,25-8,4.51-15.75,4-22.77-1.3-7.88-5.93-9.87-14.09-6.75-23.6H28.78c0,10.8-.28,21.4.15,32,.15,3.67,2.58,6.41,7.24,6.37,15.81-.13,31.62,0,47.43-.06,5,0,8.17-2.18,8.35-6.92.38-10.41.12-20.83.12-31.41Z"/></svg>