<svg id="Capa_1" data-name="Capa 1" xmlns="http://www.w3.org/2000/svg" viewBox="0 0 120 117.46"><defs><style>.cls-1{fill:#f2f2f2;}</style></defs><title>ICONOS</title><path class="cls-1" d="M102.67,0H17.33A17.33,17.33,0,0,0,0,17.33v82.8a17.33,17.33,0,0,0,17.33,17.33H66.56V66.33H56.65V50.09l9.57-.66c.64-10.5-1.08-21.73,9.1-29.06,8.62-6.2,18.48-2.44,28.19-3.5V33.35a75.57,75.57,0,0,1-9.06-.07c-5.8-.72-7.64,2-7.35,7.16.16,2.88,0,5.77,0,9.3h17c-.7,5.76-1.31,10.79-2,16.26H87.4v51.46h15.27A17.33,17.33,0,0,0,120,100.13V17.33A17.33,17.33,0,0,0,102.67,0Z"/></svg>