<?xml version="1.0" encoding="utf-8"?>
<!-- Generator: Adobe Illustrator 22.0.0, SVG Export Plug-In . SVG Version: 6.00 Build 0)  -->
<svg version="1.1" id="Capa_1" xmlns="http://www.w3.org/2000/svg" xmlns:xlink="http://www.w3.org/1999/xlink" x="0px" y="0px"
	 viewBox="0 0 560 175.5" style="enable-background:new 0 0 560 175.5;" xml:space="preserve">
<style type="text/css">
	.st0{fill:#FFFFFF;}
</style>
<g>
	<g>
		<path class="st0" d="M26.3,19.5"/>
		<polygon class="st0" points="26.3,40.9 70.4,69.6 114.4,40.9 114.4,19.5 70.4,48.2 26.3,19.5 		"/>
		<polygon class="st0" points="51.5,85.5 70.4,97.7 89.4,85.3 89.4,64.8 70.4,77.5 51.3,65.1 		"/>
		<polygon class="st0" points="51.5,114.1 70.4,126.4 89.4,113.9 89.4,93.4 70.4,106.1 51.3,93.8 		"/>
		<polygon class="st0" points="26.3,48.8 44.6,60.7 44.6,117.8 70.4,134.6 96.1,117.8 96.1,60.7 114.4,48.8 114.4,127.3 70.4,156 
			26.3,127.3 		"/>
	</g>
	<g>
		<g>
			<path class="st0" d="M195.2,79.1c-0.4-5.8-0.8-12.8-0.8-17.8h-0.1c-1.6,4.8-3.5,10-5.8,15.7l-8.2,20.1l-4.6,0l-7.7-19.6
				c-2.2-5.9-4.1-11.1-5.4-16h-0.1c-0.1,5.2-0.4,12-0.8,18.3l-1.2,17.7l-5.8,0l3.1-41.3l7.7,0l8.1,19.9c2,5.1,3.5,9.6,4.8,13.9h0.1
				c1.2-4.2,2.9-8.7,4.9-13.9l8.2-20l7.7,0l3.1,41.3l-6,0L195.2,79.1z"/>
			<path class="st0" d="M251.9,75.9c0.1,14.2-9.7,21.8-21.6,21.9c-12.4,0.1-21.1-8.4-21.1-20.9c-0.1-13.1,9.1-21.7,21.5-21.8
				C243.5,55,251.8,63.6,251.9,75.9z M215.5,76.7c0,8.9,5.5,16.8,15.1,16.7s14.9-7.9,14.9-17.2c0-8.3-4.9-16.8-15-16.8
				S215.5,67.7,215.5,76.7z"/>
			<path class="st0" d="M259.4,90.5c2.7,1.5,6.6,2.7,10.8,2.6c6.2,0,9.8-2.9,9.7-7.1c0-3.8-2.5-6.1-8.8-8.1
				c-7.6-2.4-12.4-6-12.4-11.7c0-6.4,6-11.2,15.1-11.3c4.7,0,8.3,0.9,10.3,2l-1.6,4.4c-1.5-0.8-4.6-1.9-8.8-1.9
				c-6.4,0-8.8,3.4-8.8,6.2c0,3.9,2.9,5.8,9.3,7.9c7.9,2.7,11.9,6,11.9,12.1c0,6.4-5.2,12-16.2,12c-4.5,0-9.4-1.2-11.9-2.6
				L259.4,90.5z"/>
			<path class="st0" d="M305,96.8l-15.5-41.3l6.6,0l7.4,20.3c2,5.6,3.7,10.6,5.1,15.4h0.1c1.3-4.8,3.1-10,5.3-15.4l7.8-20.4l6.5,0
				l-16.5,41.4L305,96.8z"/>
			<path class="st0" d="M357.8,77.2l-18.1,0.1l0.1,14.9l20.3-0.1l0,4.5l-26.4,0.1l-0.2-41.3l25.3-0.1l0,4.5l-19.2,0.1l0.1,13.1
				l18.1-0.1L357.8,77.2z"/>
			<path class="st0" d="M376.5,96.5l-12-41.3l6.4,0l5.6,20.9c1.4,5.1,2.7,10.3,3.5,14.3h0.1c0.7-4.1,2.2-9,3.8-14.4l6.1-20.9l6.3,0
				l5.8,20.9c1.3,4.9,2.6,9.8,3.3,14.2l0.1,0c1-4.5,2.3-9.1,3.7-14.3l6.1-20.9l6.2,0l-13.1,41.4l-6.3,0l-6-21.5
				c-1.5-5.3-2.5-9.3-3.1-13.5h-0.1c-0.7,4.1-1.8,8.2-3.5,13.5l-6.6,21.5L376.5,96.5z"/>
			<path class="st0" d="M431.5,83.2l-4.8,13l-6.2,0l15.8-41.4l7.2,0l16.1,41.3l-6.5,0l-5-13L431.5,83.2z M446.8,79l-4.7-11.9
				c-1.1-2.7-1.8-5.1-2.5-7.5h-0.1c-0.7,2.4-1.4,5-2.3,7.5l-4.5,12L446.8,79z"/>
			<path class="st0" d="M466.6,55.3c3-0.5,7.5-0.9,11.6-0.9c6.5,0,10.7,1.1,13.5,3.3c2.3,1.8,3.7,4.6,3.7,7.9c0,5.4-3.8,9-8.7,10.5
				l0,0.2c3.5,1.1,5.7,4,6.8,8.3c1.5,5.8,2.7,9.7,3.7,11.3l-6.2,0c-0.8-1.2-1.8-4.7-3.1-9.9c-1.4-5.7-4-7.8-9.5-8l-5.7,0l0.1,17.9
				l-6,0L466.6,55.3z M472.7,74.1l6.2,0c6.5,0,10.5-3.2,10.5-7.9c0-5.3-4.4-7.6-10.8-7.6c-2.9,0-4.9,0.2-6,0.5L472.7,74.1z"/>
			<path class="st0" d="M528.5,76.4l-18.1,0.1l0.1,14.9l20.3-0.1l0,4.5l-26.4,0.1l-0.2-41.3l25.3-0.1l0,4.5L510.3,59l0.1,13.1
				l18.1-0.1L528.5,76.4z"/>
		</g>
		<g>
			<g>
				<line class="st0" x1="486.4" y1="115.2" x2="508.9" y2="115.2"/>
				<rect x="486.4" y="114.4" class="st0" width="22.5" height="1.5"/>
			</g>
			<g>
				<line class="st0" x1="461.6" y1="115.2" x2="484.1" y2="115.2"/>
				<rect x="461.6" y="114.4" class="st0" width="22.5" height="1.5"/>
			</g>
			<g>
				<line class="st0" x1="511.2" y1="115.2" x2="533.7" y2="115.2"/>
				<rect x="511.2" y="114.4" class="st0" width="22.5" height="1.5"/>
			</g>
		</g>
		<g>
			<path class="st0" d="M230.9,108.7l1.9,0l0,11l6.2,0l0,1.3l-8.1,0L230.9,108.7z"/>
			<path class="st0" d="M248.6,115.2l-5.6,0l0,4.5l6.3,0l0,1.3l-8.1,0l-0.1-12.4l7.8,0l0,1.3l-5.9,0l0,3.9l5.6,0L248.6,115.2z"/>
			<path class="st0" d="M254.1,117.1l-1.5,3.9l-1.9,0l4.9-12.4l2.2,0l5,12.4l-2,0l-1.6-3.9L254.1,117.1z M258.9,115.8l-1.5-3.6
				c-0.3-0.8-0.5-1.5-0.8-2.3h0c-0.2,0.7-0.4,1.5-0.7,2.2l-1.4,3.6L258.9,115.8z"/>
			<path class="st0" d="M265,108.7c1.1-0.2,2.5-0.3,4-0.3c2.7,0,4.6,0.5,5.9,1.5c1.3,1,2.1,2.4,2.1,4.4c0,2-0.7,3.7-2.1,4.8
				c-1.4,1.2-3.6,1.8-6.4,1.8c-1.3,0-2.4,0-3.4-0.1L265,108.7z M266.9,119.7c0.5,0.1,1.2,0.1,1.9,0.1c4,0,6.1-1.9,6.1-5.3
				c0-2.9-1.9-4.8-5.9-4.8c-1,0-1.7,0.1-2.2,0.2L266.9,119.7z"/>
			<path class="st0" d="M286.8,115l-5.6,0l0,4.5l6.3,0l0,1.3l-8.1,0l-0.1-12.4l7.8,0l0,1.3l-5.9,0l0,3.9l5.6,0L286.8,115z"/>
			<path class="st0" d="M290,108.6c0.9-0.1,2.3-0.3,3.6-0.3c2,0,3.3,0.3,4.2,1c0.7,0.5,1.1,1.4,1.1,2.4c0,1.6-1.2,2.7-2.7,3.2v0.1
				c1.1,0.3,1.8,1.2,2.1,2.5c0.5,1.7,0.8,2.9,1.1,3.4l-1.9,0c-0.2-0.4-0.6-1.4-1-3c-0.4-1.7-1.2-2.3-2.9-2.4l-1.8,0l0,5.4l-1.9,0
				L290,108.6z M291.9,114.2l1.9,0c2,0,3.3-1,3.2-2.4c0-1.6-1.4-2.3-3.3-2.3c-0.9,0-1.5,0.1-1.8,0.1L291.9,114.2z"/>
			<path class="st0" d="M308.1,108.4l0.1,12.4l-1.9,0l-0.1-12.4L308.1,108.4z"/>
			<path class="st0" d="M311.5,120.7l-0.1-12.4l2.1,0l4.6,6.2c1.1,1.4,1.9,2.7,2.6,4l0.1,0c-0.2-1.7-0.2-3.2-0.2-5.1l0-5.2l1.8,0
				l0.1,12.4l-1.9,0l-4.6-6.3c-1-1.4-2-2.8-2.7-4.1l-0.1,0c0.1,1.6,0.1,3,0.1,5.1l0,5.3L311.5,120.7z"/>
			<path class="st0" d="M332.2,109.6l-4.4,0l0-1.4l10.7,0l0,1.4l-4.4,0l0,11l-1.9,0L332.2,109.6z"/>
			<path class="st0" d="M347.7,114.8l-5.6,0l0,4.5l6.3,0l0,1.3l-8.1,0l-0.1-12.4l7.8,0l0,1.3l-5.9,0l0,3.9l5.6,0L347.7,114.8z"/>
			<path class="st0" d="M361,120.1c-0.7,0.3-2.1,0.6-3.8,0.6c-4.1,0-7.1-2.2-7.1-6.3c0-3.9,3-6.5,7.5-6.5c1.8,0,2.9,0.3,3.4,0.5
				l-0.5,1.3c-0.7-0.3-1.7-0.5-2.9-0.5c-3.4,0-5.6,1.9-5.6,5.1c0,3,2.1,5,5.5,5c1.2,0,2.3-0.2,3.1-0.5L361,120.1z"/>
			<path class="st0" d="M365.3,108.1l0,5.2l7,0l0-5.2l1.9,0l0.1,12.4l-1.9,0l0-5.8l-7,0l0,5.8l-1.9,0l-0.1-12.4L365.3,108.1z"/>
			<path class="st0" d="M377.5,120.5l-0.1-12.4l2.1,0l4.6,6.2c1.1,1.4,1.9,2.7,2.6,4l0.1,0c-0.2-1.7-0.2-3.2-0.2-5.1l0-5.2l1.8,0
				l0.1,12.4l-1.9,0l-4.6-6.3c-1-1.4-2-2.8-2.7-4.1l-0.1,0c0.1,1.6,0.1,3.1,0.1,5.1l0,5.3L377.5,120.5z"/>
			<path class="st0" d="M404,114c0,4.2-3,6.5-6.7,6.6c-3.8,0-6.5-2.5-6.5-6.3c0-3.9,2.8-6.5,6.7-6.5C401.5,107.7,404,110.3,404,114z
				 M392.8,114.2c0,2.7,1.7,5,4.7,5c3,0,4.6-2.4,4.6-5.2c0-2.5-1.5-5-4.6-5C394.3,109.1,392.8,111.5,392.8,114.2z"/>
			<path class="st0" d="M406.5,107.9l1.9,0l0,11l6.2,0l0,1.3l-8.1,0L406.5,107.9z"/>
			<path class="st0" d="M428.3,113.9c0,4.2-3,6.5-6.7,6.6c-3.8,0-6.5-2.5-6.5-6.3c0-3.9,2.8-6.5,6.7-6.5
				C425.7,107.6,428.3,110.2,428.3,113.9z M417.1,114.1c0,2.7,1.7,5,4.7,5c3,0,4.6-2.4,4.6-5.2c0-2.5-1.5-5-4.6-5
				C418.6,109,417,111.4,417.1,114.1z"/>
			<path class="st0" d="M441.8,119.6c-0.8,0.3-2.5,0.7-4.5,0.7c-2.2,0-4-0.5-5.4-1.6c-1.2-1-2-2.7-2-4.6c0-3.7,2.9-6.4,7.8-6.4
				c1.7,0,3,0.3,3.6,0.6l-0.5,1.3c-0.8-0.3-1.7-0.5-3.2-0.5c-3.5,0-5.8,1.9-5.8,5c0,3.1,2.2,5,5.6,5c1.2,0,2.1-0.2,2.5-0.3l0-3.7
				l-2.9,0l0-1.3l4.8,0L441.8,119.6z"/>
			<path class="st0" d="M448,120.1l0-5.3l-4.6-7.1l2.1,0l2,3.4c0.5,0.9,1,1.7,1.4,2.6h0c0.4-0.8,0.9-1.6,1.4-2.6l2.1-3.4l2.1,0
				l-4.8,7.1l0,5.3L448,120.1z"/>
		</g>
		<g>
			<g>
				<line class="st0" x1="175.2" y1="115.2" x2="197.7" y2="115.2"/>
				<rect x="175.2" y="114.4" class="st0" width="22.5" height="1.5"/>
			</g>
			<g>
				<line class="st0" x1="150.4" y1="115.2" x2="172.9" y2="115.2"/>
				<rect x="150.4" y="114.4" class="st0" width="22.5" height="1.5"/>
			</g>
			<g>
				<line class="st0" x1="200" y1="115.2" x2="222.5" y2="115.2"/>
				<rect x="200" y="114.4" class="st0" width="22.5" height="1.5"/>
			</g>
		</g>
	</g>
</g>
</svg>
