<?xml version="1.0" encoding="utf-8"?>
<!-- Generator: Adobe Illustrator 22.0.0, SVG Export Plug-In . SVG Version: 6.00 Build 0)  -->
<svg version="1.1" id="Capa_1" xmlns="http://www.w3.org/2000/svg" xmlns:xlink="http://www.w3.org/1999/xlink" x="0px" y="0px"
	 viewBox="0 0 46.5 21" style="enable-background:new 0 0 46.5 21;" xml:space="preserve">
<style type="text/css">
	.st0{fill:#FFFFFF;}
</style>
<title>Page 1</title>
<desc>Created with Sketch.</desc>
<g id="Page-1">
	<path class="st0" d="M1.5,12h27c0.4,0,0.8-0.1,1.1-0.4c0.3-0.3,0.4-0.6,0.4-1.1s-0.1-0.8-0.4-1.1C29.3,9.1,28.9,9,28.5,9h-27
		C1.1,9,0.7,9.1,0.4,9.4C0.1,9.7,0,10.1,0,10.5s0.1,0.8,0.4,1.1C0.7,11.9,1.1,12,1.5,12z M1.5,3h27c0.4,0,0.8-0.1,1.1-0.4
		C29.9,2.3,30,1.9,30,1.5s-0.1-0.8-0.4-1.1C29.3,0.1,28.9,0,28.5,0h-27C1.1,0,0.7,0.1,0.4,0.4S0,1.1,0,1.5s0.1,0.8,0.4,1.1
		S1.1,3,1.5,3z M1.5,21h27c0.4,0,0.8-0.1,1.1-0.4c0.3-0.3,0.4-0.6,0.4-1.1s-0.1-0.8-0.4-1.1C29.3,18.1,29,18,28.5,18h-27
		c-0.4,0-0.8,0.1-1.1,0.4S0,19.1,0,19.5s0.1,0.8,0.4,1.1S1.1,21,1.5,21z"/>
</g>
</svg>
